<svg width="62" height="62" viewBox="0 0 62 62" fill="none" xmlns="http://www.w3.org/2000/svg">
<path d="M16.688 20.752V40H15.9761V21.7012L10.4653 23.771V22.9932L16.543 20.752H16.688ZM36.3447 35.0034C36.3447 36.1636 36.0723 37.1348 35.5273 37.917C34.9824 38.6992 34.2485 39.2881 33.3257 39.6836C32.4028 40.0703 31.3745 40.2637 30.2407 40.2637C29.0894 40.2637 28.0479 40.0703 27.1162 39.6836C26.1934 39.2881 25.4595 38.6992 24.9146 37.917C24.3784 37.1348 24.1104 36.1636 24.1104 35.0034C24.1104 34.2476 24.2642 33.5576 24.5718 32.9336C24.8882 32.3096 25.3232 31.7734 25.877 31.3252C26.4307 30.877 27.0767 30.5298 27.8149 30.2837C28.5532 30.0376 29.353 29.9146 30.2144 29.9146C31.3481 29.9146 32.3765 30.1299 33.2993 30.5605C34.231 30.9912 34.9692 31.5889 35.5142 32.3535C36.0679 33.1094 36.3447 33.9927 36.3447 35.0034ZM35.6196 35.0693C35.6196 34.1465 35.3779 33.3467 34.8945 32.6699C34.4111 31.9932 33.7607 31.4702 32.9434 31.1011C32.126 30.7231 31.2163 30.5342 30.2144 30.5342C29.2036 30.5342 28.2896 30.7231 27.4722 31.1011C26.6548 31.4702 26.0088 31.9932 25.5342 32.6699C25.0596 33.3467 24.8223 34.1465 24.8223 35.0693C24.8223 36.0361 25.0596 36.8535 25.5342 37.5215C26.0088 38.1895 26.6548 38.6948 27.4722 39.0376C28.2983 39.3804 29.2212 39.5518 30.2407 39.5518C31.2427 39.5518 32.1479 39.3804 32.9565 39.0376C33.7739 38.6948 34.4199 38.1895 34.8945 37.5215C35.3779 36.8535 35.6196 36.0361 35.6196 35.0693ZM35.791 25.6826C35.791 26.623 35.5405 27.4536 35.0396 28.1743C34.5386 28.895 33.8662 29.4575 33.0225 29.8618C32.1875 30.2661 31.2515 30.4683 30.2144 30.4683C29.1597 30.4683 28.2104 30.2661 27.3667 29.8618C26.5317 29.4575 25.8682 28.895 25.376 28.1743C24.8926 27.4536 24.6509 26.623 24.6509 25.6826C24.6509 24.5664 24.8926 23.6304 25.376 22.8745C25.8682 22.1099 26.5317 21.5298 27.3667 21.1343C28.2017 20.7388 29.1421 20.541 30.188 20.541C31.2251 20.541 32.1655 20.7388 33.0093 21.1343C33.853 21.5298 34.5254 22.1099 35.0264 22.8745C35.5361 23.6304 35.791 24.5664 35.791 25.6826ZM35.0791 25.6167C35.0791 24.7642 34.8594 24.0127 34.4199 23.3623C33.9805 22.7031 33.3916 22.189 32.6533 21.8198C31.915 21.4419 31.0933 21.2529 30.188 21.2529C29.2739 21.2529 28.4521 21.4287 27.7227 21.7803C26.9932 22.1318 26.4175 22.6328 25.9956 23.2832C25.5737 23.9336 25.3628 24.7114 25.3628 25.6167C25.3628 26.4868 25.5737 27.2383 25.9956 27.8711C26.4175 28.4951 26.9932 28.9785 27.7227 29.3213C28.4609 29.6553 29.2915 29.8223 30.2144 29.8223C31.1196 29.8223 31.937 29.6553 32.6665 29.3213C33.4048 28.9785 33.9893 28.4951 34.4199 27.8711C34.8594 27.2383 35.0791 26.4868 35.0791 25.6167ZM51.7036 30.7451V31.4438H38.5464V30.7451H51.7036ZM45.3623 24.1006V38.0752H44.6372V24.1006H45.3623Z" fill="white" fill-opacity="0.5"/>
<circle cx="31" cy="31" r="30.5" stroke="white" stroke-opacity="0.5"/>
</svg>
