<svg width="20" height="20" viewBox="0 0 20 20" fill="none" xmlns="http://www.w3.org/2000/svg">
<path d="M8.58726 10.0013L0.293263 1.70926C0.200287 1.61629 0.126535 1.50591 0.0762167 1.38443C0.0258985 1.26295 9.79659e-10 1.13275 0 1.00126C-9.79661e-10 0.869775 0.0258985 0.739575 0.0762167 0.618096C0.126535 0.496617 0.200287 0.386239 0.293263 0.293263C0.386239 0.200287 0.496617 0.126535 0.618096 0.0762167C0.739575 0.0258985 0.869775 -9.79661e-10 1.00126 0C1.13275 9.79659e-10 1.26295 0.0258985 1.38443 0.0762167C1.50591 0.126535 1.61629 0.200287 1.70926 0.293263L10.0013 8.58726L18.2933 0.293263C18.481 0.10549 18.7357 0 19.0013 0C19.2668 0 19.5215 0.10549 19.7093 0.293263C19.897 0.481036 20.0025 0.735712 20.0025 1.00126C20.0025 1.26681 19.897 1.52149 19.7093 1.70926L11.4153 10.0013L19.7093 18.2933C19.897 18.481 20.0025 18.7357 20.0025 19.0013C20.0025 19.2668 19.897 19.5215 19.7093 19.7093C19.5215 19.897 19.2668 20.0025 19.0013 20.0025C18.7357 20.0025 18.481 19.897 18.2933 19.7093L10.0013 11.4153L1.70926 19.7093C1.52149 19.897 1.26681 20.0025 1.00126 20.0025C0.735712 20.0025 0.481036 19.897 0.293263 19.7093C0.10549 19.5215 0 19.2668 0 19.0013C0 18.7357 0.10549 18.481 0.293263 18.2933L8.58726 10.0013Z" fill="white"/>
</svg>
