<svg width="17" height="17" viewBox="0 0 17 17" fill="none" xmlns="http://www.w3.org/2000/svg">
<g clip-path="url(#clip0_55_463)">
<path d="M8.26943 0C12.687 0 16.5389 3.64682 16.5389 7.85596C16.5389 11.994 12.7738 15.2505 8.26943 15.2505C7.30603 15.251 6.34864 15.0986 5.43302 14.799C5.04931 15.1711 4.91783 15.2976 4.10329 16.0832C3.51616 16.5265 2.96376 16.677 2.47008 16.3975C1.97226 16.1163 1.82258 15.5689 1.9243 14.8478L2.25507 12.9301C0.818674 11.5789 0 9.79266 0 7.85596C0 3.64682 3.85107 0 8.26943 0ZM8.26943 1.15772C4.47707 1.15772 1.15772 4.3001 1.15772 7.85596C1.15772 9.54706 1.91189 11.1042 3.24162 12.2636L3.25816 12.2776L3.50376 12.491L3.44835 12.8135L3.33423 13.4783L3.30364 13.6553L3.06796 15.0264C3.05406 15.1187 3.04577 15.2118 3.04315 15.3051V15.3836C3.04315 15.3878 3.04232 15.3894 3.0415 15.3902C3.04729 15.382 3.15975 15.3464 3.35243 15.2058L5.14689 13.4643L5.48925 13.5933C6.37856 13.9251 7.32023 14.0946 8.26943 14.0936C12.1693 14.0936 15.3811 11.3151 15.3811 7.85596C15.3811 4.30093 12.0618 1.15772 8.26943 1.15772ZM4.32243 6.46091C4.48903 6.45482 4.65514 6.48238 4.81084 6.54193C4.96655 6.60148 5.10865 6.69181 5.22866 6.80752C5.34867 6.92323 5.44413 7.06194 5.50933 7.21537C5.57453 7.36879 5.60813 7.53379 5.60813 7.70049C5.60813 7.8672 5.57453 8.03219 5.50933 8.18562C5.44413 8.33905 5.34867 8.47776 5.22866 8.59347C5.10865 8.70917 4.96655 8.7995 4.81084 8.85906C4.65514 8.91861 4.48903 8.94617 4.32243 8.94008C4.00151 8.92836 3.69764 8.79263 3.47474 8.56144C3.25185 8.33025 3.1273 8.02163 3.1273 7.70049C3.1273 7.37936 3.25185 7.07073 3.47474 6.83955C3.69764 6.60836 4.00151 6.47263 4.32243 6.46091ZM8.45549 6.46091C8.62209 6.45482 8.7882 6.48238 8.9439 6.54193C9.09961 6.60148 9.24171 6.69181 9.36172 6.80752C9.48174 6.92323 9.57719 7.06194 9.64239 7.21537C9.70759 7.36879 9.74119 7.53379 9.74119 7.70049C9.74119 7.8672 9.70759 8.03219 9.64239 8.18562C9.57719 8.33905 9.48174 8.47776 9.36172 8.59347C9.24171 8.70917 9.09961 8.7995 8.9439 8.85906C8.7882 8.91861 8.62209 8.94617 8.45549 8.94008C8.13457 8.92836 7.8307 8.79263 7.60781 8.56144C7.38491 8.33025 7.26036 8.02163 7.26036 7.70049C7.26036 7.37936 7.38491 7.07073 7.60781 6.83955C7.8307 6.60836 8.13457 6.47263 8.45549 6.46091ZM12.5877 6.46091C12.7543 6.45482 12.9204 6.48238 13.0761 6.54193C13.2318 6.60148 13.3739 6.69181 13.494 6.80752C13.614 6.92323 13.7094 7.06194 13.7746 7.21537C13.8398 7.36879 13.8734 7.53379 13.8734 7.70049C13.8734 7.8672 13.8398 8.03219 13.7746 8.18562C13.7094 8.33905 13.614 8.47776 13.494 8.59347C13.3739 8.70917 13.2318 8.7995 13.0761 8.85906C12.9204 8.91861 12.7543 8.94617 12.5877 8.94008C12.2668 8.92836 11.9629 8.79263 11.74 8.56144C11.5171 8.33025 11.3926 8.02163 11.3926 7.70049C11.3926 7.37936 11.5171 7.07073 11.74 6.83955C11.9629 6.60836 12.2668 6.47263 12.5877 6.46091Z" fill="white"/>
</g>
<defs>
<clipPath id="clip0_55_463">
<rect width="16.5389" height="16.5389" fill="white"/>
</clipPath>
</defs>
</svg>
