<svg width="12" height="12" viewBox="0 0 12 12" fill="none" xmlns="http://www.w3.org/2000/svg">
<g clip-path="url(#clip0_55_227)">
<path d="M10.6356 5.3743C10.7948 5.22012 11.0009 5.14453 11.2069 5.14751C11.413 5.15049 11.6171 5.23106 11.7724 5.39022L11.7841 5.40215C11.9306 5.55931 12.0019 5.76024 11.9989 5.96018C11.996 6.16011 11.9188 6.36004 11.7675 6.51223C10.0429 8.26886 8.28994 10.0066 6.55264 11.7523C6.54776 11.7592 6.54287 11.7652 6.53701 11.7712C6.37783 11.9254 6.16983 12.001 5.96377 11.998C5.75772 11.995 5.55264 11.9134 5.39737 11.7543L5.37197 11.7274C3.65908 9.98969 1.94033 8.25394 0.230372 6.51124C0.0799818 6.35905 0.0028333 6.16011 -9.63863e-05 5.96018C-0.00302607 5.76024 0.068263 5.55931 0.215724 5.40215L0.230372 5.38723C0.384669 5.23106 0.587794 5.15049 0.792872 5.14751C0.997951 5.14453 1.20498 5.22012 1.36416 5.3743L5.98037 10.0712L10.6356 5.3743ZM10.4403 0.224765C10.5985 0.071582 10.8046 -0.00302008 11.0097 -3.5998e-05C11.2157 0.00294809 11.4198 0.0835184 11.5751 0.24267L11.5868 0.254606C11.7333 0.410773 11.8046 0.612696 11.8026 0.81263C11.7997 1.01256 11.7226 1.2125 11.5712 1.36469C9.88272 3.08451 8.22256 4.86104 6.55459 6.60374C6.54971 6.61071 6.54385 6.61767 6.53799 6.62463C6.37881 6.77881 6.1708 6.85441 5.96475 6.85142C5.75869 6.84844 5.55362 6.76687 5.39834 6.60772C3.74307 4.868 2.09365 3.11933 0.440333 1.37563L0.427638 1.36369C0.277247 1.2115 0.201076 1.01256 0.198146 0.81263C0.195216 0.612696 0.266505 0.411768 0.41299 0.254606L0.427638 0.239685C0.581935 0.0835184 0.786036 0.00294809 0.990138 -3.5998e-05C1.19522 -0.00302008 1.40225 0.0725767 1.56143 0.226754L5.9794 4.91972L10.4403 0.224765Z" fill="white" fill-opacity="0.5"/>
</g>
<defs>
<clipPath id="clip0_55_227">
<rect width="12" height="12" fill="white"/>
</clipPath>
</defs>
</svg>
