<svg width="18" height="18" viewBox="0 0 18 18" fill="none" xmlns="http://www.w3.org/2000/svg">
<path d="M9.00024 14.1622C7.51288 14.1815 6.04896 13.7908 4.76899 13.033C3.48901 12.2752 2.44243 11.1795 1.74399 9.86624C1.61048 9.59699 1.54102 9.30053 1.54102 8.99999C1.54102 8.69946 1.61048 8.403 1.74399 8.13374C2.44243 6.82044 3.48901 5.72482 4.76899 4.96702C6.04896 4.20922 7.51288 3.81852 9.00024 3.83774C10.4876 3.81852 11.9515 4.20922 13.2315 4.96702C14.5115 5.72482 15.558 6.82044 16.2565 8.13374C16.39 8.403 16.4595 8.69946 16.4595 8.99999C16.4595 9.30053 16.39 9.59699 16.2565 9.86624C15.558 11.1795 14.5115 12.2752 13.2315 13.033C11.9515 13.7908 10.4876 14.1815 9.00024 14.1622ZM9.00024 4.58774C7.65195 4.56753 6.32414 4.91912 5.16253 5.60391C4.00092 6.28871 3.05038 7.28026 2.41524 8.46974C2.33308 8.63456 2.29032 8.81621 2.29032 9.00037C2.29032 9.18453 2.33308 9.36617 2.41524 9.53099C3.05055 10.7203 4.00114 11.7116 5.16273 12.3963C6.32432 13.0809 7.65204 13.4324 9.00024 13.4122C10.3485 13.4325 11.6763 13.0809 12.8379 12.3961C13.9996 11.7113 14.9501 10.7197 15.5852 9.53024C15.6674 9.36555 15.7101 9.18403 15.7101 8.99999C15.7101 8.81596 15.6674 8.63443 15.5852 8.46974C14.9501 7.28026 13.9996 6.28871 12.8379 5.60391C11.6763 4.91912 10.3485 4.56753 9.00024 4.58774Z" fill="#989898"/>
<path d="M9.00013 12.0368C8.39952 12.0368 7.81239 11.8587 7.313 11.525C6.81361 11.1913 6.42438 10.717 6.19454 10.1621C5.96469 9.60723 5.90456 8.99664 6.02173 8.40757C6.1389 7.8185 6.42813 7.2774 6.85282 6.8527C7.27752 6.428 7.81862 6.13878 8.40769 6.02161C8.99676 5.90443 9.60735 5.96457 10.1622 6.19442C10.7171 6.42426 11.1914 6.81349 11.5251 7.31288C11.8588 7.81227 12.0369 8.3994 12.0369 9.00001C12.0359 9.8051 11.7156 10.5769 11.1463 11.1462C10.5771 11.7155 9.80522 12.0358 9.00013 12.0368ZM9.00013 6.71176C8.54792 6.71176 8.10586 6.84584 7.72984 7.09704C7.35381 7.34825 7.06072 7.7053 6.88759 8.12306C6.71447 8.54082 6.6691 9.00054 6.75721 9.44408C6.84532 9.88762 7.06297 10.2951 7.38262 10.615C7.70228 10.9348 8.1096 11.1527 8.55309 11.2411C8.99658 11.3295 9.45632 11.2845 9.87419 11.1116C10.2921 10.9388 10.6493 10.6459 10.9008 10.27C11.1522 9.89419 11.2866 9.45222 11.2869 9.00001C11.2863 8.39371 11.0452 7.81241 10.6164 7.38369C10.1877 6.95497 9.60643 6.71385 9.00013 6.71326V6.71176Z" fill="#989898"/>
<path d="M9 10.521C9.84003 10.521 10.521 9.84003 10.521 9C10.521 8.15998 9.84003 7.479 9 7.479C8.15998 7.479 7.479 8.15998 7.479 9C7.479 9.84003 8.15998 10.521 9 10.521Z" fill="#989898"/>
</svg>
