<svg xmlns="http://www.w3.org/2000/svg" style="display:none;">
  <symbol id="double-arrow" viewBox="0 0 12 12">
    <g>
      <path fill="currentColor" d="M10.6356 5.37418C10.7948 5.22 11.0008 5.1444 11.2069 5.14739C11.4129 5.15037 11.617 5.23094 11.7723 5.39009L11.784 5.40203C11.9305 5.55919 12.0018 5.76012 11.9989 5.96005C11.9959 6.15999 11.9188 6.35992 11.7674 6.51211C10.0428 8.26874 8.28988 10.0065 6.55258 11.7522C6.54769 11.7591 6.54281 11.7651 6.53695 11.7711C6.37777 11.9252 6.16976 12.0008 5.96371 11.9979C5.75766 11.9949 5.55258 11.9133 5.3973 11.7542L5.37191 11.7273C3.65902 9.98956 1.94027 8.25382 0.230311 6.51111C0.0799207 6.35893 0.00277227 6.15999 -0.000157421 5.96005C-0.00308711 5.76012 0.068202 5.55919 0.215663 5.40203L0.230311 5.38711C0.384608 5.23094 0.587733 5.15037 0.792811 5.14739C0.99789 5.1444 1.20492 5.22 1.3641 5.37418L5.98031 10.0711L10.6356 5.37418ZM10.4403 0.224643C10.5985 0.07146 10.8045 -0.00314215 11.0096 -0.000158068C11.2157 0.00282602 11.4198 0.0833963 11.575 0.242547L11.5868 0.254484C11.7332 0.410651 11.8045 0.612574 11.8026 0.812508C11.7996 1.01244 11.7225 1.21238 11.5711 1.36456C9.88266 3.08439 8.2225 4.86092 6.55453 6.60362C6.54965 6.61058 6.54379 6.61755 6.53793 6.62451C6.37875 6.77869 6.17074 6.85428 5.96469 6.8513C5.75863 6.84832 5.55355 6.76675 5.39828 6.6076C3.74301 4.86788 2.09359 3.11921 0.440272 1.3755L0.427577 1.36357C0.277186 1.21138 0.201014 1.01244 0.198085 0.812508C0.195155 0.612574 0.266444 0.411646 0.412929 0.254484L0.427577 0.239563C0.581874 0.0833963 0.785975 0.00282602 0.990077 -0.000158068C1.19516 -0.00314215 1.40219 0.0724547 1.56137 0.226632L5.97934 4.9196L10.4403 0.224643Z"/>
    </g>
  </symbol>
  <!-- Иконка: часы -->
  <symbol id="icon-clock" viewBox="0 0 8 8">
    <path
      d="M4 0C1.79063 0 0 1.79063 0 4C0 6.20937 1.79063 8 4 8C6.20937 8 8 6.20937 8 4C8 1.79063 6.20937 0 4 0ZM4 7.33281C2.15937 7.33281 0.667188 5.84062 0.667188 4C0.667188 2.15937 2.15937 0.667188 4 0.667188C5.84062 0.667188 7.33281 2.15937 7.33281 4C7.33281 5.84062 5.84062 7.33281 4 7.33281ZM4.33281 1.33281H3.66563V4.33281H6V3.66563H4.33281V1.33281Z"
      fill="currentColor"
      fill-opacity="0.5"
    />
  </symbol>

  <!-- Иконка: сообщение -->
  <symbol id="icon-message" viewBox="0 0 12 12">
    <path
      d="M6 0C9.2052 0 12 2.646 12 5.7C12 8.7024 9.2682 11.0652 6 11.0652C5.30099 11.0656 4.60635 10.955 3.942 10.7376C3.6636 11.0076 3.5682 11.0994 2.9772 11.6694C2.5512 11.991 2.1504 12.1002 1.7922 11.8974C1.431 11.6934 1.3224 11.2962 1.3962 10.773L1.6362 9.3816C0.594 8.4012 0 7.1052 0 5.7C0 2.646 2.7942 0 6 0ZM6 0.84C3.2484 0.84 0.84 3.12 0.84 5.7C0.84 6.927 1.3872 8.0568 2.352 8.898L2.364 8.9082L2.5422 9.063L2.502 9.297L2.4192 9.7794L2.397 9.9078L2.226 10.9026C2.21592 10.9696 2.2099 11.0371 2.208 11.1048V11.1618C2.208 11.1648 2.2074 11.166 2.2068 11.1666C2.211 11.1606 2.2926 11.1348 2.4324 11.0328L3.7344 9.7692L3.9828 9.8628C4.62805 10.1036 5.31129 10.2265 6 10.2258C8.8296 10.2258 11.16 8.2098 11.16 5.7C11.16 3.1206 8.7516 0.84 6 0.84ZM3.1362 4.6878C3.25708 4.68338 3.3776 4.70338 3.49057 4.74659C3.60355 4.7898 3.70665 4.85534 3.79373 4.93929C3.88081 5.02324 3.95006 5.12389 3.99737 5.23521C4.04468 5.34653 4.06906 5.46625 4.06906 5.5872C4.06906 5.70816 4.04468 5.82787 3.99737 5.93919C3.95006 6.05051 3.88081 6.15116 3.79373 6.23511C3.70665 6.31906 3.60355 6.3846 3.49057 6.42781C3.3776 6.47102 3.25708 6.49102 3.1362 6.4866C2.90335 6.47809 2.68287 6.37961 2.52115 6.21187C2.35942 6.04413 2.26906 5.82021 2.26906 5.5872C2.26906 5.3542 2.35942 5.13027 2.52115 4.96253C2.68287 4.79479 2.90335 4.69631 3.1362 4.6878ZM6.135 4.6878C6.25588 4.68338 6.3764 4.70338 6.48937 4.74659C6.60235 4.7898 6.70545 4.85534 6.79253 4.93929C6.87961 5.02324 6.94886 5.12389 6.99617 5.23521C7.04348 5.34653 7.06786 5.46625 7.06786 5.5872C7.06786 5.70816 7.04348 5.82787 6.99617 5.93919C6.94886 6.05051 6.87961 6.15116 6.79253 6.23511C6.70545 6.31906 6.60235 6.3846 6.48937 6.42781C6.3764 6.47102 6.25588 6.49102 6.135 6.4866C5.90215 6.47809 5.68167 6.37961 5.51995 6.21187C5.35822 6.04413 5.26786 5.82021 5.26786 5.5872C5.26786 5.3542 5.35822 5.13027 5.51995 4.96253C5.68167 4.79479 5.90215 4.69631 6.135 4.6878ZM9.1332 4.6878C9.25408 4.68338 9.3746 4.70338 9.48757 4.74659C9.60055 4.7898 9.70365 4.85534 9.79073 4.93929C9.87781 5.02324 9.94706 5.12389 9.99437 5.23521C10.0417 5.34653 10.0661 5.46625 10.0661 5.5872C10.0661 5.70816 10.0417 5.82787 9.99437 5.93919C9.94706 6.05051 9.87781 6.15116 9.79073 6.23511C9.70365 6.31906 9.60055 6.3846 9.48757 6.42781C9.3746 6.47102 9.25408 6.49102 9.1332 6.4866C8.90035 6.47809 8.67987 6.37961 8.51815 6.21187C8.35642 6.04413 8.26606 5.82021 8.26606 5.5872C8.26606 5.3542 8.35642 5.13027 8.51815 4.96253C8.67987 4.79479 8.90035 4.69631 9.1332 4.6878Z"
      fill="currentColor"
      fill-opacity="0.5"
    />
  </symbol>

  <!-- Иконка: длинная стрелка влево -->
  <symbol id="icon-long-arrow-left" viewBox="0 0 21 9">
    <path
      d="M15.3222 0L21 4.46157L15.2385 9L14.3805 8.11655L18.2741 5.0498L0 5.06532V3.89219L18.2745 3.87704L14.4646 0.883447L15.3222 0Z"
      fill="currentColor"
      fill-opacity="0.75"
    />
  </symbol>
  <symbol id="icon-close" viewBox="0 0 20 20">

      <path d="M8.58726 10.0013L0.293263 1.70926C0.200287 1.61629 0.126535 1.50591 0.0762167 1.38443C0.0258985 1.26295 9.79659e-10 1.13275 0 1.00126C-9.79661e-10 0.869775 0.0258985 0.739575 0.0762167 0.618096C0.126535 0.496617 0.200287 0.386239 0.293263 0.293263C0.386239 0.200287 0.496617 0.126535 0.618096 0.0762167C0.739575 0.0258985 0.869775 -9.79661e-10 1.00126 0C1.13275 9.79659e-10 1.26295 0.0258985 1.38443 0.0762167C1.50591 0.126535 1.61629 0.200287 1.70926 0.293263L10.0013 8.58726L18.2933 0.293263C18.481 0.10549 18.7357 0 19.0013 0C19.2668 0 19.5215 0.10549 19.7093 0.293263C19.897 0.481036 20.0025 0.735712 20.0025 1.00126C20.0025 1.26681 19.897 1.52149 19.7093 1.70926L11.4153 10.0013L19.7093 18.2933C19.897 18.481 20.0025 18.7357 20.0025 19.0013C20.0025 19.2668 19.897 19.5215 19.7093 19.7093C19.5215 19.897 19.2668 20.0025 19.0013 20.0025C18.7357 20.0025 18.481 19.897 18.2933 19.7093L10.0013 11.4153L1.70926 19.7093C1.52149 19.897 1.26681 20.0025 1.00126 20.0025C0.735712 20.0025 0.481036 19.897 0.293263 19.7093C0.10549 19.5215 0 19.2668 0 19.0013C0 18.7357 0.10549 18.481 0.293263 18.2933L8.58726 10.0013Z" fill="currentColor" />

  </symbol>
  <symbol id="icon-calendar" viewBox="0 0 18 18">
  <path d="M14.625 3H12.375V1.875C12.375 1.77554 12.3355 1.68016 12.2652 1.60984C12.1948 1.53951 12.0995 1.5 12 1.5C11.9005 1.5 11.8052 1.53951 11.7348 1.60984C11.6645 1.68016 11.625 1.77554 11.625 1.875V3H6.375V1.875C6.375 1.77554 6.33549 1.68016 6.26517 1.60984C6.19484 1.53951 6.09946 1.5 6 1.5C5.90054 1.5 5.80516 1.53951 5.73484 1.60984C5.66451 1.68016 5.625 1.77554 5.625 1.875V3H3.375C2.8779 3.0006 2.40133 3.19833 2.04983 3.54983C1.69833 3.90133 1.5006 4.3779 1.5 4.875V14.625C1.5006 15.1221 1.69833 15.5987 2.04983 15.9502C2.40133 16.3017 2.8779 16.4994 3.375 16.5H14.625C15.1223 16.5 15.5992 16.3025 15.9508 15.9508C16.3025 15.5992 16.5 15.1223 16.5 14.625V4.875C16.5 4.37772 16.3025 3.90081 15.9508 3.54917C15.5992 3.19754 15.1223 3 14.625 3ZM15.75 14.625C15.75 14.9234 15.6315 15.2095 15.4205 15.4205C15.2095 15.6315 14.9234 15.75 14.625 15.75H3.375C3.07663 15.75 2.79048 15.6315 2.5795 15.4205C2.36853 15.2095 2.25 14.9234 2.25 14.625V8.25H15.75V14.625ZM15.75 7.5H2.25V4.875C2.25 4.254 2.7525 3.75 3.375 3.75H5.625V4.875C5.625 4.97446 5.66451 5.06984 5.73484 5.14016C5.80516 5.21049 5.90054 5.25 6 5.25C6.09946 5.25 6.19484 5.21049 6.26517 5.14016C6.33549 5.06984 6.375 4.97446 6.375 4.875V3.75H11.625V4.875C11.625 4.97446 11.6645 5.06984 11.7348 5.14016C11.8052 5.21049 11.9005 5.25 12 5.25C12.0995 5.25 12.1948 5.21049 12.2652 5.14016C12.3355 5.06984 12.375 4.97446 12.375 4.875V3.75H14.625C14.9234 3.75 15.2095 3.86853 15.4205 4.0795C15.6315 4.29048 15.75 4.57663 15.75 4.875V7.5Z" fill="currentColor" />
  </symbol>
  <symbol id="icon-eye" viewBox="0 0 18 18">
  <path d="M9.00024 14.1622C7.51288 14.1815 6.04896 13.7908 4.76899 13.033C3.48901 12.2752 2.44243 11.1795 1.74399 9.86624C1.61048 9.59699 1.54102 9.30053 1.54102 8.99999C1.54102 8.69946 1.61048 8.403 1.74399 8.13374C2.44243 6.82044 3.48901 5.72482 4.76899 4.96702C6.04896 4.20922 7.51288 3.81852 9.00024 3.83774C10.4876 3.81852 11.9515 4.20922 13.2315 4.96702C14.5115 5.72482 15.558 6.82044 16.2565 8.13374C16.39 8.403 16.4595 8.69946 16.4595 8.99999C16.4595 9.30053 16.39 9.59699 16.2565 9.86624C15.558 11.1795 14.5115 12.2752 13.2315 13.033C11.9515 13.7908 10.4876 14.1815 9.00024 14.1622ZM9.00024 4.58774C7.65195 4.56753 6.32414 4.91912 5.16253 5.60391C4.00092 6.28871 3.05038 7.28026 2.41524 8.46974C2.33308 8.63456 2.29032 8.81621 2.29032 9.00037C2.29032 9.18453 2.33308 9.36617 2.41524 9.53099C3.05055 10.7203 4.00114 11.7116 5.16273 12.3963C6.32432 13.0809 7.65204 13.4324 9.00024 13.4122C10.3485 13.4325 11.6763 13.0809 12.8379 12.3961C13.9996 11.7113 14.9501 10.7197 15.5852 9.53024C15.6674 9.36555 15.7101 9.18403 15.7101 8.99999C15.7101 8.81596 15.6674 8.63443 15.5852 8.46974C14.9501 7.28026 13.9996 6.28871 12.8379 5.60391C11.6763 4.91912 10.3485 4.56753 9.00024 4.58774Z" fill="currentColor" />
  <path d="M9.00013 12.0368C8.39952 12.0368 7.81239 11.8587 7.313 11.525C6.81361 11.1913 6.42438 10.717 6.19454 10.1621C5.96469 9.60723 5.90456 8.99664 6.02173 8.40757C6.1389 7.8185 6.42813 7.2774 6.85282 6.8527C7.27752 6.428 7.81862 6.13878 8.40769 6.02161C8.99676 5.90443 9.60735 5.96457 10.1622 6.19442C10.7171 6.42426 11.1914 6.81349 11.5251 7.31288C11.8588 7.81227 12.0369 8.3994 12.0369 9.00001C12.0359 9.8051 11.7156 10.5769 11.1463 11.1462C10.5771 11.7155 9.80522 12.0358 9.00013 12.0368ZM9.00013 6.71176C8.54792 6.71176 8.10586 6.84584 7.72984 7.09704C7.35381 7.34825 7.06072 7.7053 6.88759 8.12306C6.71447 8.54082 6.6691 9.00054 6.75721 9.44408C6.84532 9.88762 7.06297 10.2951 7.38262 10.615C7.70228 10.9348 8.1096 11.1527 8.55309 11.2411C8.99658 11.3295 9.45632 11.2845 9.87419 11.1116C10.2921 10.9388 10.6493 10.6459 10.9008 10.27C11.1522 9.89419 11.2866 9.45222 11.2869 9.00001C11.2863 8.39371 11.0452 7.81241 10.6164 7.38369C10.1877 6.95497 9.60643 6.71385 9.00013 6.71326V6.71176Z" fill="currentColor" />
  <path d="M9 10.521C9.84003 10.521 10.521 9.84003 10.521 9C10.521 8.15998 9.84003 7.479 9 7.479C8.15998 7.479 7.479 8.15998 7.479 9C7.479 9.84003 8.15998 10.521 9 10.521Z" fill="currentColor" />

  </symbol>
</svg>
