<svg width="42" height="42" viewBox="0 0 42 42" fill="none" xmlns="http://www.w3.org/2000/svg">
<circle cx="21" cy="21" r="21" fill="#353535"/>
<g clip-path="url(#clip0_153_3)">
<path d="M20.8988 6.96662C20.8533 6.97485 20.8083 6.986 20.7642 7.00001C20.521 7.0545 20.3043 7.19162 20.151 7.38799C19.9976 7.58436 19.9171 7.82784 19.9231 8.07693V11.3077C19.9231 11.5933 20.0366 11.8672 20.2385 12.0692C20.4405 12.2712 20.7144 12.3846 21 12.3846C21.2856 12.3846 21.5596 12.2712 21.7615 12.0692C21.9635 11.8672 22.0769 11.5933 22.0769 11.3077V8.07693C22.0824 7.92379 22.0551 7.77125 21.9969 7.62951C21.9386 7.48777 21.8508 7.36008 21.7393 7.25498C21.6278 7.14989 21.4951 7.0698 21.3502 7.02007C21.2052 6.97035 21.0513 6.95212 20.8988 6.96662ZM14.3705 8.71662C14.1951 8.74164 14.0286 8.80954 13.8857 8.91431C13.7428 9.01909 13.628 9.1575 13.5514 9.31727C13.4748 9.47704 13.4388 9.65325 13.4466 9.83025C13.4544 10.0073 13.5058 10.1796 13.5962 10.332L15.2116 13.1589C15.3576 13.4025 15.5932 13.5792 15.868 13.6511C16.1427 13.723 16.4347 13.6843 16.6813 13.5434C16.9278 13.4025 17.1094 13.1706 17.1869 12.8974C17.2645 12.6242 17.2319 12.3315 17.0962 12.082L15.4808 9.25509C15.3732 9.06237 15.209 8.90737 15.0104 8.81106C14.8118 8.71475 14.5884 8.68178 14.3705 8.71662ZM27.2591 8.71662C27.1038 8.74655 26.957 8.81031 26.8291 8.90337C26.7013 8.99643 26.5955 9.11652 26.5193 9.25509L24.9039 12.082C24.7681 12.3315 24.7355 12.6242 24.8131 12.8974C24.8907 13.1706 25.0722 13.4025 25.3188 13.5434C25.5654 13.6843 25.8573 13.723 26.1321 13.6511C26.4068 13.5792 26.6425 13.4025 26.7885 13.1589L28.4039 10.332C28.5047 10.16 28.5558 9.9634 28.5514 9.76408C28.5471 9.56476 28.4875 9.37055 28.3794 9.20309C28.2712 9.03562 28.1186 8.90147 27.9387 8.81559C27.7588 8.7297 27.5586 8.69544 27.3603 8.71662C27.327 8.71507 27.2925 8.71507 27.2591 8.71662ZM32.1397 13.4282C32.1054 13.4376 32.0717 13.4488 32.0385 13.4615C31.9078 13.4832 31.7822 13.5289 31.668 13.5962L28.8411 15.2115C28.5975 15.3575 28.4208 15.5932 28.349 15.8679C28.2771 16.1427 28.3157 16.4347 28.4566 16.6812C28.5975 16.9278 28.8295 17.1094 29.1027 17.1869C29.3759 17.2645 29.6686 17.2319 29.918 17.0962L32.7449 15.4808C32.9885 15.3777 33.1857 15.1886 33.2988 14.9495C33.4119 14.7104 33.4331 14.4381 33.3583 14.1844C33.2835 13.9307 33.1179 13.7134 32.8932 13.5739C32.6685 13.4345 32.4003 13.3826 32.1397 13.4282ZM9.62449 13.4615C9.39769 13.4904 9.18597 13.5907 9.01998 13.748C8.854 13.9052 8.74235 14.1112 8.70121 14.3361C8.66007 14.5609 8.69157 14.7931 8.79115 14.9989C8.89073 15.2047 9.05322 15.3735 9.2551 15.4808L12.082 17.0962C12.3315 17.2319 12.6242 17.2645 12.8974 17.1869C13.1706 17.1094 13.4025 16.9278 13.5434 16.6812C13.6843 16.4347 13.723 16.1427 13.6511 15.8679C13.5792 15.5932 13.4025 15.3575 13.1589 15.2115L10.332 13.5962C10.1189 13.4717 9.86844 13.4241 9.62449 13.4615ZM21 13.4615C20.0101 13.4615 19.0298 13.6565 18.1152 14.0354C17.2006 14.4142 16.3695 14.9695 15.6695 15.6695C14.9695 16.3695 14.4142 17.2006 14.0354 18.1152C13.6566 19.0298 13.4616 20.01 13.4616 21C13.4616 21.99 13.6566 22.9702 14.0354 23.8849C14.4142 24.7995 14.9695 25.6305 15.6695 26.3305C16.3695 27.0305 17.2006 27.5858 18.1152 27.9646C19.0298 28.3435 20.0101 28.5385 21 28.5385C22.9993 28.5385 24.9168 27.7442 26.3305 26.3305C27.7443 24.9168 28.5385 22.9993 28.5385 21C28.5385 19.0007 27.7443 17.0832 26.3305 15.6695C24.9168 14.2558 22.9993 13.4615 21 13.4615ZM21 15.6154C23.9691 15.6154 26.3846 18.0309 26.3846 21C26.3846 23.9691 23.9691 26.3846 21 26.3846C18.0309 26.3846 15.6154 23.9691 15.6154 21C15.6154 18.0309 18.0309 15.6154 21 15.6154ZM7.77433 19.9231C7.48871 19.9632 7.23074 20.1152 7.05715 20.3455C6.88356 20.5758 6.80859 20.8657 6.84872 21.1513C6.88885 21.4369 7.04079 21.6949 7.27113 21.8685C7.50147 22.0421 7.79133 22.1171 8.07695 22.0769H11.3077C11.5933 22.0769 11.8673 21.9635 12.0692 21.7615C12.2712 21.5595 12.3846 21.2856 12.3846 21C12.3846 20.7144 12.2712 20.4405 12.0692 20.2385C11.8673 20.0365 11.5933 19.9231 11.3077 19.9231H8.07695C8.04322 19.9215 8.00944 19.9215 7.97572 19.9231C7.94199 19.9215 7.90821 19.9215 7.87449 19.9231C7.84112 19.9215 7.8077 19.9215 7.77433 19.9231ZM30.3897 19.9231C30.1041 19.9632 29.8461 20.1152 29.6725 20.3455C29.4989 20.5758 29.424 20.8657 29.4641 21.1513C29.5042 21.4369 29.6562 21.6949 29.8865 21.8685C30.1169 22.0421 30.4067 22.1171 30.6923 22.0769H33.9231C34.2087 22.0769 34.4826 21.9635 34.6846 21.7615C34.8866 21.5595 35 21.2856 35 21C35 20.7144 34.8866 20.4405 34.6846 20.2385C34.4826 20.0365 34.2087 19.9231 33.9231 19.9231H30.6923C30.6586 19.9215 30.6248 19.9215 30.5911 19.9231C30.5577 19.9215 30.5243 19.9215 30.4909 19.9231C30.4572 19.9215 30.4234 19.9215 30.3897 19.9231ZM12.5526 24.7359C12.5187 24.7453 12.4853 24.7565 12.4525 24.7692C12.3218 24.7909 12.1962 24.8366 12.082 24.9039L9.2551 26.5192C9.01151 26.6652 8.83483 26.9009 8.76295 27.1756C8.69108 27.4504 8.72974 27.7424 8.87064 27.9889C9.01154 28.2355 9.24346 28.4171 9.51666 28.4946C9.78986 28.5722 10.0826 28.5396 10.332 28.4039L13.1589 26.7885C13.4028 26.6855 13.6003 26.4963 13.7135 26.257C13.8268 26.0178 13.8479 25.7451 13.7729 25.4913C13.6979 25.2374 13.532 25.02 13.3069 24.8807C13.0819 24.7413 12.8133 24.6898 12.5526 24.7359ZM29.2116 24.7692C28.9847 24.798 28.7728 24.8981 28.6067 25.0553C28.4406 25.2124 28.3288 25.4184 28.2875 25.6433C28.2462 25.8682 28.2777 26.1005 28.3772 26.3063C28.4767 26.5122 28.6392 26.6811 28.8411 26.7885L31.668 28.4039C31.9175 28.5396 32.2102 28.5722 32.4834 28.4946C32.7566 28.4171 32.9885 28.2355 33.1294 27.9889C33.2703 27.7424 33.309 27.4504 33.2371 27.1756C33.1652 26.9009 32.9885 26.6652 32.7449 26.5192L29.918 24.9039C29.7049 24.7794 29.4555 24.7318 29.2116 24.7692ZM15.9514 28.3026C15.7961 28.3325 15.6493 28.3963 15.5215 28.4894C15.3936 28.5824 15.2878 28.7025 15.2116 28.8411L13.5962 31.668C13.4604 31.9175 13.4279 32.2102 13.5054 32.4834C13.583 32.7566 13.7645 32.9885 14.0111 33.1294C14.2577 33.2703 14.5497 33.309 14.8244 33.2371C15.0992 33.1652 15.3348 32.9885 15.4808 32.7449L17.0962 29.918C17.197 29.746 17.2481 29.5494 17.2438 29.3501C17.2394 29.1508 17.1799 28.9566 17.0717 28.7891C16.9635 28.6216 16.8109 28.4875 16.631 28.4016C16.4511 28.3157 16.2509 28.2814 16.0526 28.3026C16.0189 28.301 15.9851 28.301 15.9514 28.3026ZM25.6782 28.3026C25.5028 28.3276 25.3362 28.3955 25.1934 28.5003C25.0505 28.6051 24.9357 28.7435 24.8591 28.9033C24.7825 29.063 24.7465 29.2392 24.7543 29.4163C24.7621 29.5933 24.8135 29.7656 24.9039 29.918L26.5193 32.7449C26.6653 32.9885 26.9009 33.1652 27.1756 33.2371C27.4504 33.309 27.7424 33.2703 27.9889 33.1294C28.2355 32.9885 28.4171 32.7566 28.4946 32.4834C28.5722 32.2102 28.5396 31.9175 28.4039 31.668L26.7885 28.8411C26.6809 28.6484 26.5167 28.4934 26.3181 28.3971C26.1195 28.3008 25.8961 28.2678 25.6782 28.3026ZM20.8988 29.582C20.8533 29.5902 20.8083 29.6014 20.7642 29.6154C20.521 29.6699 20.3043 29.807 20.151 30.0034C19.9976 30.1998 19.9171 30.4432 19.9231 30.6923V33.9231C19.9231 34.2087 20.0366 34.4826 20.2385 34.6846C20.4405 34.8866 20.7144 35 21 35C21.2856 35 21.5596 34.8866 21.7615 34.6846C21.9635 34.4826 22.0769 34.2087 22.0769 33.9231V30.6923C22.0824 30.5392 22.0551 30.3866 21.9969 30.2449C21.9386 30.1032 21.8508 29.9755 21.7393 29.8704C21.6278 29.7653 21.4951 29.6852 21.3502 29.6355C21.2052 29.5857 21.0513 29.5675 20.8988 29.582Z" fill="white"/>
</g>
<defs>
<clipPath id="clip0_153_3">
<rect width="28" height="28" fill="white" transform="translate(7 7)"/>
</clipPath>
</defs>
</svg>
