<svg width="223" height="27" viewBox="0 0 223 27" fill="none" xmlns="http://www.w3.org/2000/svg">
<path d="M22.0781 12.5859V13.7285C22.0781 15.6738 21.8086 17.4199 21.2695 18.9668C20.7422 20.5137 19.9863 21.832 19.002 22.9219C18.0293 24.0117 16.8691 24.8496 15.5215 25.4355C14.1855 26.0098 12.7031 26.2969 11.0742 26.2969C9.44531 26.2969 7.95703 26.0098 6.60938 25.4355C5.26172 24.8496 4.08984 24.0117 3.09375 22.9219C2.10938 21.832 1.34766 20.5137 0.808594 18.9668C0.269531 17.4199 0 15.6738 0 13.7285V12.5859C0 10.6406 0.269531 8.89453 0.808594 7.34766C1.34766 5.78906 2.10352 4.46484 3.07617 3.375C4.06055 2.28516 5.22656 1.45313 6.57422 0.878906C7.92188 0.292969 9.41016 0 11.0391 0C12.668 0 14.1562 0.292969 15.5039 0.878906C16.8516 1.45313 18.0117 2.28516 18.9844 3.375C19.9688 4.46484 20.7305 5.78906 21.2695 7.34766C21.8086 8.89453 22.0781 10.6406 22.0781 12.5859ZM16.2949 13.7285V12.5508C16.2949 11.25 16.1777 10.1016 15.9434 9.10547C15.709 8.09766 15.3691 7.25391 14.9238 6.57422C14.4785 5.89453 13.9277 5.38477 13.2715 5.04492C12.6152 4.69336 11.8711 4.51758 11.0391 4.51758C10.1719 4.51758 9.41602 4.69336 8.77148 5.04492C8.12695 5.38477 7.58203 5.89453 7.13672 6.57422C6.70312 7.25391 6.36914 8.09766 6.13477 9.10547C5.91211 10.1016 5.80078 11.25 5.80078 12.5508V13.7285C5.80078 15.0176 5.91211 16.166 6.13477 17.1738C6.36914 18.1699 6.70898 19.0137 7.1543 19.7051C7.59961 20.3965 8.14453 20.918 8.78906 21.2695C9.44531 21.6211 10.207 21.7969 11.0742 21.7969C11.9062 21.7969 12.6445 21.6211 13.2891 21.2695C13.9453 20.918 14.4961 20.3965 14.9414 19.7051C15.3867 19.0137 15.7207 18.1699 15.9434 17.1738C16.1777 16.166 16.2949 15.0176 16.2949 13.7285ZM36.1758 0.351562V25.9453H30.4629V0.351562H36.1758ZM43.9629 0.351562V4.79883H22.834V0.351562H43.9629ZM55.4238 5.2207L48.8145 25.9453H42.6973L52.1719 0.351562H56.0391L55.4238 5.2207ZM60.9082 25.9453L54.2812 5.2207L53.5957 0.351562H57.5156L67.0254 25.9453H60.9082ZM60.627 16.418V20.8477H47.2852V16.418H60.627ZM74.8828 0.351562V25.9453H69.1523V0.351562H74.8828ZM90.1758 0.351562L80.1562 13.1484L74.3203 19.4766L73.2832 14.1504L77.1328 8.63086L83.1445 0.351562H90.1758ZM83.5312 25.9453L76.4648 14.2559L80.8242 10.8633L90.3164 25.9453H83.5312ZM106.119 0.351562H111.85V17.1562C111.85 19.1484 111.428 20.8242 110.584 22.1836C109.752 23.543 108.592 24.5684 107.104 25.2598C105.615 25.9512 103.893 26.2969 101.936 26.2969C99.9668 26.2969 98.2324 25.9512 96.7324 25.2598C95.2441 24.5684 94.0723 23.543 93.2168 22.1836C92.373 20.8242 91.9512 19.1484 91.9512 17.1562V0.351562H97.6992V17.1562C97.6992 18.2578 97.8633 19.1602 98.1914 19.8633C98.5312 20.5547 99.0176 21.0645 99.6504 21.3926C100.283 21.709 101.045 21.8672 101.936 21.8672C102.826 21.8672 103.582 21.709 104.203 21.3926C104.836 21.0645 105.311 20.5547 105.627 19.8633C105.955 19.1602 106.119 18.2578 106.119 17.1562V0.351562Z" fill="white"/>
<path d="M125.402 20.2676L131.098 0.351562H137.479L128.707 25.9453H124.541L125.402 20.2676ZM120.217 0.351562L125.895 20.2676L126.791 25.9453H122.572L113.854 0.351562H120.217ZM157.008 21.5156V25.9453H143.385V21.5156H157.008ZM145.336 0.351562V25.9453H139.605V0.351562H145.336ZM155.25 10.6523V14.9414H143.385V10.6523H155.25ZM157.025 0.351562V4.79883H143.385V0.351562H157.025ZM159.82 0.351562H169.646C171.604 0.351562 173.297 0.644531 174.727 1.23047C176.168 1.81641 177.275 2.68359 178.049 3.83203C178.822 4.98047 179.209 6.39844 179.209 8.08594C179.209 9.49219 178.98 10.6875 178.523 11.6719C178.066 12.6562 177.422 13.4707 176.59 14.1152C175.77 14.7598 174.809 15.2812 173.707 15.6797L171.844 16.6992H163.477L163.441 12.252H169.664C170.52 12.252 171.229 12.0996 171.791 11.7949C172.354 11.4902 172.775 11.0625 173.057 10.5117C173.35 9.94922 173.496 9.29297 173.496 8.54297C173.496 7.76953 173.35 7.10156 173.057 6.53906C172.764 5.97656 172.33 5.54883 171.756 5.25586C171.193 4.95117 170.49 4.79883 169.646 4.79883H165.551V25.9453H159.82V0.351562ZM173.988 25.9453L168.24 14.5723L174.287 14.5547L180.123 25.6816V25.9453H173.988ZM196.365 19.1953C196.365 18.7617 196.301 18.375 196.172 18.0352C196.043 17.6836 195.809 17.3613 195.469 17.0684C195.129 16.7754 194.648 16.4824 194.027 16.1895C193.406 15.8848 192.592 15.5742 191.584 15.2578C190.436 14.8828 189.34 14.4609 188.297 13.9922C187.266 13.5117 186.346 12.9551 185.537 12.3223C184.729 11.6895 184.09 10.9512 183.621 10.1074C183.164 9.26367 182.936 8.2793 182.936 7.1543C182.936 6.06445 183.176 5.08008 183.656 4.20117C184.137 3.32227 184.811 2.57227 185.678 1.95117C186.545 1.31836 187.564 0.837891 188.736 0.509766C189.908 0.169922 191.197 0 192.604 0C194.479 0 196.125 0.333984 197.543 1.00195C198.973 1.6582 200.086 2.58398 200.883 3.7793C201.68 4.96289 202.078 6.33984 202.078 7.91016H196.383C196.383 7.21875 196.236 6.60938 195.943 6.08203C195.662 5.54297 195.229 5.12109 194.643 4.81641C194.068 4.51172 193.348 4.35938 192.48 4.35938C191.637 4.35938 190.928 4.48828 190.354 4.74609C189.791 4.99219 189.363 5.33203 189.07 5.76562C188.789 6.19922 188.648 6.67383 188.648 7.18945C188.648 7.59961 188.754 7.97461 188.965 8.31445C189.188 8.64258 189.504 8.95312 189.914 9.24609C190.336 9.52734 190.852 9.79688 191.461 10.0547C192.07 10.3125 192.768 10.5586 193.553 10.793C194.924 11.2266 196.137 11.707 197.191 12.2344C198.258 12.7617 199.154 13.3594 199.881 14.0273C200.607 14.6953 201.152 15.4512 201.516 16.2949C201.891 17.1387 202.078 18.0938 202.078 19.1602C202.078 20.2969 201.855 21.3047 201.41 22.1836C200.977 23.0625 200.344 23.8125 199.512 24.4336C198.691 25.043 197.707 25.5059 196.559 25.8223C195.41 26.1387 194.127 26.2969 192.709 26.2969C191.42 26.2969 190.148 26.1328 188.895 25.8047C187.641 25.4648 186.504 24.9492 185.484 24.2578C184.477 23.5664 183.668 22.6875 183.059 21.6211C182.461 20.543 182.162 19.2656 182.162 17.7891H187.893C187.893 18.5625 188.004 19.2188 188.227 19.7578C188.449 20.2852 188.766 20.7129 189.176 21.041C189.598 21.3691 190.107 21.6035 190.705 21.7441C191.303 21.8848 191.971 21.9551 192.709 21.9551C193.564 21.9551 194.256 21.8379 194.783 21.6035C195.322 21.3574 195.721 21.0234 195.979 20.6016C196.236 20.1797 196.365 19.7109 196.365 19.1953ZM222.855 21.5156V25.9453H209.232V21.5156H222.855ZM211.184 0.351562V25.9453H205.453V0.351562H211.184ZM221.098 10.6523V14.9414H209.232V10.6523H221.098ZM222.873 0.351562V4.79883H209.232V0.351562H222.873Z" fill="white"/>
<path d="M125.402 20.2676L131.098 0.351562H137.479L128.707 25.9453H124.541L125.402 20.2676ZM120.217 0.351562L125.895 20.2676L126.791 25.9453H122.572L113.854 0.351562H120.217ZM157.008 21.5156V25.9453H143.385V21.5156H157.008ZM145.336 0.351562V25.9453H139.605V0.351562H145.336ZM155.25 10.6523V14.9414H143.385V10.6523H155.25ZM157.025 0.351562V4.79883H143.385V0.351562H157.025ZM159.82 0.351562H169.646C171.604 0.351562 173.297 0.644531 174.727 1.23047C176.168 1.81641 177.275 2.68359 178.049 3.83203C178.822 4.98047 179.209 6.39844 179.209 8.08594C179.209 9.49219 178.98 10.6875 178.523 11.6719C178.066 12.6562 177.422 13.4707 176.59 14.1152C175.77 14.7598 174.809 15.2812 173.707 15.6797L171.844 16.6992H163.477L163.441 12.252H169.664C170.52 12.252 171.229 12.0996 171.791 11.7949C172.354 11.4902 172.775 11.0625 173.057 10.5117C173.35 9.94922 173.496 9.29297 173.496 8.54297C173.496 7.76953 173.35 7.10156 173.057 6.53906C172.764 5.97656 172.33 5.54883 171.756 5.25586C171.193 4.95117 170.49 4.79883 169.646 4.79883H165.551V25.9453H159.82V0.351562ZM173.988 25.9453L168.24 14.5723L174.287 14.5547L180.123 25.6816V25.9453H173.988ZM196.365 19.1953C196.365 18.7617 196.301 18.375 196.172 18.0352C196.043 17.6836 195.809 17.3613 195.469 17.0684C195.129 16.7754 194.648 16.4824 194.027 16.1895C193.406 15.8848 192.592 15.5742 191.584 15.2578C190.436 14.8828 189.34 14.4609 188.297 13.9922C187.266 13.5117 186.346 12.9551 185.537 12.3223C184.729 11.6895 184.09 10.9512 183.621 10.1074C183.164 9.26367 182.936 8.2793 182.936 7.1543C182.936 6.06445 183.176 5.08008 183.656 4.20117C184.137 3.32227 184.811 2.57227 185.678 1.95117C186.545 1.31836 187.564 0.837891 188.736 0.509766C189.908 0.169922 191.197 0 192.604 0C194.479 0 196.125 0.333984 197.543 1.00195C198.973 1.6582 200.086 2.58398 200.883 3.7793C201.68 4.96289 202.078 6.33984 202.078 7.91016H196.383C196.383 7.21875 196.236 6.60938 195.943 6.08203C195.662 5.54297 195.229 5.12109 194.643 4.81641C194.068 4.51172 193.348 4.35938 192.48 4.35938C191.637 4.35938 190.928 4.48828 190.354 4.74609C189.791 4.99219 189.363 5.33203 189.07 5.76562C188.789 6.19922 188.648 6.67383 188.648 7.18945C188.648 7.59961 188.754 7.97461 188.965 8.31445C189.188 8.64258 189.504 8.95312 189.914 9.24609C190.336 9.52734 190.852 9.79688 191.461 10.0547C192.07 10.3125 192.768 10.5586 193.553 10.793C194.924 11.2266 196.137 11.707 197.191 12.2344C198.258 12.7617 199.154 13.3594 199.881 14.0273C200.607 14.6953 201.152 15.4512 201.516 16.2949C201.891 17.1387 202.078 18.0938 202.078 19.1602C202.078 20.2969 201.855 21.3047 201.41 22.1836C200.977 23.0625 200.344 23.8125 199.512 24.4336C198.691 25.043 197.707 25.5059 196.559 25.8223C195.41 26.1387 194.127 26.2969 192.709 26.2969C191.42 26.2969 190.148 26.1328 188.895 25.8047C187.641 25.4648 186.504 24.9492 185.484 24.2578C184.477 23.5664 183.668 22.6875 183.059 21.6211C182.461 20.543 182.162 19.2656 182.162 17.7891H187.893C187.893 18.5625 188.004 19.2188 188.227 19.7578C188.449 20.2852 188.766 20.7129 189.176 21.041C189.598 21.3691 190.107 21.6035 190.705 21.7441C191.303 21.8848 191.971 21.9551 192.709 21.9551C193.564 21.9551 194.256 21.8379 194.783 21.6035C195.322 21.3574 195.721 21.0234 195.979 20.6016C196.236 20.1797 196.365 19.7109 196.365 19.1953ZM222.855 21.5156V25.9453H209.232V21.5156H222.855ZM211.184 0.351562V25.9453H205.453V0.351562H211.184ZM221.098 10.6523V14.9414H209.232V10.6523H221.098ZM222.873 0.351562V4.79883H209.232V0.351562H222.873Z" fill="#A128FE"/>
</svg>
