<svg width="12" height="12" viewBox="0 0 12 12" fill="none" xmlns="http://www.w3.org/2000/svg">
<g clip-path="url(#clip0_55_285)">
<path d="M6 0C9.2052 0 12 2.646 12 5.7C12 8.7024 9.2682 11.0652 6 11.0652C5.30099 11.0656 4.60635 10.955 3.942 10.7376C3.6636 11.0076 3.5682 11.0994 2.9772 11.6694C2.5512 11.991 2.1504 12.1002 1.7922 11.8974C1.431 11.6934 1.3224 11.2962 1.3962 10.773L1.6362 9.3816C0.594 8.4012 0 7.1052 0 5.7C0 2.646 2.7942 0 6 0ZM6 0.84C3.2484 0.84 0.84 3.12 0.84 5.7C0.84 6.927 1.3872 8.0568 2.352 8.898L2.364 8.9082L2.5422 9.063L2.502 9.297L2.4192 9.7794L2.397 9.9078L2.226 10.9026C2.21592 10.9696 2.2099 11.0371 2.208 11.1048V11.1618C2.208 11.1648 2.2074 11.166 2.2068 11.1666C2.211 11.1606 2.2926 11.1348 2.4324 11.0328L3.7344 9.7692L3.9828 9.8628C4.62805 10.1036 5.31129 10.2265 6 10.2258C8.8296 10.2258 11.16 8.2098 11.16 5.7C11.16 3.1206 8.7516 0.84 6 0.84ZM3.1362 4.6878C3.25708 4.68338 3.3776 4.70338 3.49057 4.74659C3.60355 4.7898 3.70665 4.85534 3.79373 4.93929C3.88081 5.02324 3.95006 5.12389 3.99737 5.23521C4.04468 5.34653 4.06906 5.46625 4.06906 5.5872C4.06906 5.70816 4.04468 5.82787 3.99737 5.93919C3.95006 6.05051 3.88081 6.15116 3.79373 6.23511C3.70665 6.31906 3.60355 6.3846 3.49057 6.42781C3.3776 6.47102 3.25708 6.49102 3.1362 6.4866C2.90335 6.47809 2.68287 6.37961 2.52115 6.21187C2.35942 6.04413 2.26906 5.82021 2.26906 5.5872C2.26906 5.3542 2.35942 5.13027 2.52115 4.96253C2.68287 4.79479 2.90335 4.69631 3.1362 4.6878ZM6.135 4.6878C6.25588 4.68338 6.3764 4.70338 6.48937 4.74659C6.60235 4.7898 6.70545 4.85534 6.79253 4.93929C6.87961 5.02324 6.94886 5.12389 6.99617 5.23521C7.04348 5.34653 7.06786 5.46625 7.06786 5.5872C7.06786 5.70816 7.04348 5.82787 6.99617 5.93919C6.94886 6.05051 6.87961 6.15116 6.79253 6.23511C6.70545 6.31906 6.60235 6.3846 6.48937 6.42781C6.3764 6.47102 6.25588 6.49102 6.135 6.4866C5.90215 6.47809 5.68167 6.37961 5.51995 6.21187C5.35822 6.04413 5.26786 5.82021 5.26786 5.5872C5.26786 5.3542 5.35822 5.13027 5.51995 4.96253C5.68167 4.79479 5.90215 4.69631 6.135 4.6878ZM9.1332 4.6878C9.25408 4.68338 9.3746 4.70338 9.48757 4.74659C9.60055 4.7898 9.70365 4.85534 9.79073 4.93929C9.87781 5.02324 9.94706 5.12389 9.99437 5.23521C10.0417 5.34653 10.0661 5.46625 10.0661 5.5872C10.0661 5.70816 10.0417 5.82787 9.99437 5.93919C9.94706 6.05051 9.87781 6.15116 9.79073 6.23511C9.70365 6.31906 9.60055 6.3846 9.48757 6.42781C9.3746 6.47102 9.25408 6.49102 9.1332 6.4866C8.90035 6.47809 8.67987 6.37961 8.51815 6.21187C8.35642 6.04413 8.26606 5.82021 8.26606 5.5872C8.26606 5.3542 8.35642 5.13027 8.51815 4.96253C8.67987 4.79479 8.90035 4.69631 9.1332 4.6878Z" fill="white" fill-opacity="0.5"/>
</g>
<defs>
<clipPath id="clip0_55_285">
<rect width="12" height="12" fill="white"/>
</clipPath>
</defs>
</svg>
