<svg width="42" height="42" viewBox="0 0 42 42" fill="none" xmlns="http://www.w3.org/2000/svg">
<ellipse cx="21" cy="21" rx="21" ry="21" fill="#353535"/>
<path d="M24.0029 8.29566L23.0797 10.142C23.0571 10.1872 23.0206 10.2238 22.9754 10.2464L21.1291 11.1696C20.957 11.2555 20.957 11.501 21.1291 11.587L22.9754 12.5101C23.0206 12.5327 23.0571 12.5693 23.0797 12.6145L24.0029 14.4609C24.0889 14.6328 24.3344 14.6328 24.4203 14.4609L25.3435 12.6145C25.366 12.5693 25.4027 12.5327 25.4478 12.5101L27.2942 11.587C27.4662 11.501 27.4662 11.2555 27.2942 11.1696L25.4478 10.2464C25.4027 10.2238 25.366 10.1872 25.3435 10.142L24.4203 8.29566C24.3344 8.12368 24.0889 8.12368 24.0029 8.29566Z" fill="white"/>
<path d="M29.4492 12.9176L28.5408 15.6428C28.5176 15.7125 28.4629 15.7672 28.3932 15.7904L25.668 16.6988C25.4552 16.7697 25.4552 17.0706 25.668 17.1416L28.3932 18.05C28.4629 18.0732 28.5176 18.1279 28.5408 18.1975L29.4492 20.9228C29.5201 21.1355 29.821 21.1355 29.8919 20.9228L30.8003 18.1975C30.8236 18.1279 30.8782 18.0732 30.9479 18.05L33.6732 17.1416C33.8859 17.0706 33.8859 16.7697 33.6732 16.6988L30.9479 15.7904C30.8782 15.7672 30.8236 15.7125 30.8003 15.6428L29.8919 12.9176C29.821 12.7049 29.5201 12.7049 29.4492 12.9176Z" fill="white"/>
<path fill-rule="evenodd" clip-rule="evenodd" d="M19.1424 22.9416C22.4409 26.2401 27.594 26.5257 31.1084 23.7653C31.152 23.7312 31.1952 23.6965 31.2383 23.6614C31.4009 23.5286 31.5598 23.3892 31.7146 23.243C31.7775 23.1838 31.8397 23.1234 31.9012 23.062C32.4986 22.4644 33.7245 22.8174 33.544 23.6428C33.4817 23.9281 33.4096 24.2103 33.3281 24.4889C33.2798 24.6541 33.2283 24.8181 33.1734 24.9809C33.1585 25.0252 33.1432 25.0697 33.1278 25.1139C31.381 30.1166 26.587 33.8337 21.0003 33.8337C13.9127 33.8337 8.16699 28.088 8.16699 21.0003C8.16699 15.322 12.0063 10.4797 17.114 8.79961L17.1766 8.77922C17.2886 8.74302 17.4012 8.70833 17.5144 8.67519C17.8148 8.58721 18.1194 8.51011 18.4274 8.44435C19.2945 8.25923 19.6491 9.55587 19.022 10.1828C18.9598 10.2451 18.8988 10.308 18.8388 10.3715C18.7202 10.4974 18.6059 10.6259 18.4961 10.7569C18.472 10.7857 18.4481 10.8145 18.4245 10.8435C15.5516 14.3598 15.8023 19.6014 19.1424 22.9416ZM17.4925 24.5915C20.6793 27.7782 25.2848 28.7349 29.2687 27.3808C27.3331 29.8695 24.3253 31.5003 21.0003 31.5003C15.2013 31.5003 10.5003 26.7994 10.5003 21.0003C10.5003 17.6069 12.1996 14.5502 14.771 12.6215C13.3186 16.6492 14.254 21.3529 17.4925 24.5915Z" fill="white"/>
</svg>
