<svg width="24" height="24" viewBox="0 0 24 24" fill="none" xmlns="http://www.w3.org/2000/svg">
<path d="M21.7031 20.7891L18 17.1094C18.5938 16.3594 19.0742 15.5 19.4414 14.5312C19.8086 13.5625 19.9922 12.5547 19.9922 11.5078C19.9922 10.2578 19.7578 9.08594 19.2891 7.99219C18.8203 6.89844 18.1797 5.94531 17.3672 5.13281C16.5547 4.32031 15.6016 3.67969 14.5078 3.21094C13.4141 2.74219 12.2422 2.50781 10.9922 2.50781C9.74219 2.50781 8.57031 2.74219 7.47656 3.21094C6.38281 3.67969 5.42969 4.32031 4.61719 5.13281C3.80469 5.94531 3.16406 6.89844 2.69531 7.99219C2.22656 9.08594 1.99219 10.2578 1.99219 11.5078C1.99219 12.7578 2.22656 13.9297 2.69531 15.0234C3.16406 16.1172 3.80469 17.0703 4.61719 17.8828C5.42969 18.6953 6.38281 19.3359 7.47656 19.8047C8.57031 20.2734 9.74219 20.5078 10.9922 20.5078C12.0547 20.5078 13.0664 20.3359 14.0273 19.9922C14.9883 19.6484 15.8438 19.1484 16.5938 18.4922L20.2969 22.1953C20.4062 22.3047 20.5273 22.3828 20.6602 22.4297C20.793 22.4766 20.9062 22.5 21 22.5C21.0938 22.5 21.207 22.4766 21.3398 22.4297C21.4727 22.3828 21.5938 22.3047 21.7031 22.1953C21.9062 21.9922 22.0078 21.7578 22.0078 21.4922C22.0078 21.2266 21.9062 20.9922 21.7031 20.7891ZM4.00781 11.5078C4.00781 10.5234 4.1875 9.60938 4.54688 8.76562C4.90625 7.90625 5.40234 7.16406 6.03516 6.53906C6.66797 5.91406 7.40625 5.41406 8.25 5.03906C9.10938 4.67969 10.0234 4.5 10.9922 4.5C11.9766 4.5 12.8906 4.67969 13.7344 5.03906C14.5938 5.41406 15.3359 5.91406 15.9609 6.53906C16.5859 7.16406 17.0859 7.90625 17.4609 8.76562C17.8203 9.60938 18 10.5234 18 11.5078C18 12.4453 17.8164 13.3438 17.4492 14.2031C17.082 15.0625 16.6016 15.7969 16.0078 16.4062C15.3516 17.0469 14.6055 17.5391 13.7695 17.8828C12.9336 18.2266 12.0469 18.3984 11.1094 18.3984C10.1094 18.4297 9.17188 18.2656 8.29688 17.9062C7.4375 17.5625 6.6875 17.0781 6.04688 16.4531C5.40625 15.8281 4.90625 15.0859 4.54688 14.2266C4.1875 13.3828 4.00781 12.4766 4.00781 11.5078Z" fill="#CACACA"/>
</svg>
