<svg width="42" height="42" viewBox="0 0 42 42" fill="none" xmlns="http://www.w3.org/2000/svg">
<circle cx="21" cy="21" r="21" fill="#353535"/>
<path d="M32.5573 30.0429L28.2377 25.7506C28.9304 24.8758 29.4908 23.8733 29.9191 22.7432C30.3474 21.6133 30.5616 20.4377 30.5616 19.2166C30.5616 17.7585 30.2882 16.3915 29.7414 15.1157C29.1946 13.8399 28.4474 12.7281 27.4996 11.7804C26.5519 10.8326 25.4401 10.0853 24.1642 9.53856C22.8884 8.99178 21.5215 8.71838 20.0634 8.71838C18.6053 8.71838 17.2383 8.99178 15.9625 9.53856C14.6867 10.0853 13.5749 10.8326 12.6272 11.7804C11.6794 12.7281 10.9321 13.8399 10.3854 15.1157C9.83857 16.3915 9.56519 17.7585 9.56519 19.2166C9.56519 20.6746 9.83857 22.0416 10.3854 23.3174C10.9321 24.5933 11.6794 25.705 12.6272 26.6528C13.5749 27.6005 14.6867 28.3478 15.9625 28.8946C17.2383 29.4413 18.6053 29.7147 20.0634 29.7147C21.3028 29.7147 22.4829 29.5142 23.6037 29.1133C24.7247 28.7123 25.7226 28.1291 26.5975 27.3636L30.917 31.6832C31.0445 31.8108 31.1858 31.9019 31.3408 31.9566C31.4957 32.0113 31.6277 32.0386 31.7371 32.0386C31.8466 32.0386 31.9786 32.0113 32.1335 31.9566C32.2885 31.9019 32.4298 31.8108 32.5573 31.6832C32.7942 31.4462 32.9127 31.1728 32.9127 30.863C32.9127 30.5532 32.7942 30.2798 32.5573 30.0429ZM11.9163 19.2166C11.9163 18.0683 12.1259 17.0021 12.5451 16.0179C12.9643 15.0155 13.543 14.1497 14.2812 13.4207C15.0193 12.6917 15.8805 12.1084 16.8647 11.671C17.8671 11.2518 18.9333 11.0422 20.0634 11.0422C21.2117 11.0422 22.2778 11.2518 23.2621 11.671C24.2645 12.1084 25.1302 12.6917 25.8592 13.4207C26.5882 14.1497 27.1715 15.0155 27.6089 16.0179C28.0281 17.0021 28.2377 18.0683 28.2377 19.2166C28.2377 20.3101 28.0236 21.3582 27.5953 22.3605C27.1669 23.363 26.6066 24.2196 25.9139 24.9304C25.1485 25.6777 24.2782 26.2519 23.303 26.6528C22.328 27.0538 21.2937 27.2542 20.2001 27.2542C19.0336 27.2907 17.94 27.0993 16.9194 26.6801C15.917 26.2792 15.0421 25.7141 14.2948 24.9851C13.5476 24.256 12.9643 23.3903 12.5451 22.3879C12.1259 21.4037 11.9163 20.3466 11.9163 19.2166Z" fill="white"/>
</svg>
