<svg width="17" height="17" viewBox="0 0 17 17" fill="none" xmlns="http://www.w3.org/2000/svg">
<path d="M8.11618 0C12.4518 0 16.2324 3.57923 16.2324 7.71037C16.2324 11.7717 12.5371 14.9679 8.11618 14.9679C7.17063 14.9684 6.23099 14.8188 5.33233 14.5247C4.95574 14.8899 4.82669 15.0141 4.02725 15.7852C3.451 16.2202 2.90884 16.3679 2.4243 16.0936C1.93571 15.8176 1.78881 15.2803 1.88863 14.5726L2.21328 12.6905C0.803501 11.3643 0 9.61118 0 7.71037C0 3.57923 3.7797 0 8.11618 0ZM8.11618 1.13626C4.3941 1.13626 1.13626 4.22041 1.13626 7.71037C1.13626 9.37013 1.87646 10.8984 3.18154 12.0363L3.19777 12.0501L3.43882 12.2595L3.38445 12.576L3.27244 13.2286L3.24241 13.4022L3.0111 14.7479C2.99746 14.8385 2.98933 14.9298 2.98675 15.0214V15.0985C2.98675 15.1026 2.98594 15.1042 2.98513 15.105C2.99081 15.0969 3.10119 15.062 3.2903 14.924L5.05151 13.2148L5.38752 13.3414C6.26035 13.667 7.18457 13.8334 8.11618 13.8324C11.9438 13.8324 15.0961 11.1054 15.0961 7.71037C15.0961 4.22122 11.8383 1.13626 8.11618 1.13626ZM4.24233 6.34117C4.40583 6.3352 4.56887 6.36224 4.72169 6.42069C4.87451 6.47914 5.01398 6.5678 5.13176 6.68136C5.24955 6.79492 5.34324 6.93106 5.40723 7.08165C5.47122 7.23223 5.5042 7.39417 5.5042 7.55778C5.5042 7.7214 5.47122 7.88334 5.40723 8.03392C5.34324 8.18451 5.24955 8.32065 5.13176 8.43421C5.01398 8.54777 4.87451 8.63643 4.72169 8.69488C4.56887 8.75333 4.40583 8.78037 4.24233 8.7744C3.92735 8.76289 3.62911 8.62968 3.41035 8.40277C3.19158 8.17587 3.06935 7.87297 3.06935 7.55778C3.06935 7.2426 3.19158 6.9397 3.41035 6.71279C3.62911 6.48589 3.92735 6.35268 4.24233 6.34117ZM8.29879 6.34117C8.4623 6.3352 8.62533 6.36224 8.77815 6.42069C8.93097 6.47914 9.07044 6.5678 9.18823 6.68136C9.30602 6.79492 9.3997 6.93106 9.46369 7.08165C9.52768 7.23223 9.56066 7.39417 9.56066 7.55778C9.56066 7.7214 9.52768 7.88334 9.46369 8.03392C9.3997 8.18451 9.30602 8.32065 9.18823 8.43421C9.07044 8.54777 8.93097 8.63643 8.77815 8.69488C8.62533 8.75333 8.4623 8.78037 8.29879 8.7744C7.98382 8.76289 7.68558 8.62968 7.46681 8.40277C7.24805 8.17587 7.12581 7.87297 7.12581 7.55778C7.12581 7.2426 7.24805 6.9397 7.46681 6.71279C7.68558 6.48589 7.98382 6.35268 8.29879 6.34117ZM12.3544 6.34117C12.518 6.3352 12.681 6.36224 12.8338 6.42069C12.9866 6.47914 13.1261 6.5678 13.2439 6.68136C13.3617 6.79492 13.4554 6.93106 13.5193 7.08165C13.5833 7.23223 13.6163 7.39417 13.6163 7.55778C13.6163 7.7214 13.5833 7.88334 13.5193 8.03392C13.4554 8.18451 13.3617 8.32065 13.2439 8.43421C13.1261 8.54777 12.9866 8.63643 12.8338 8.69488C12.681 8.75333 12.518 8.78037 12.3544 8.7744C12.0395 8.76289 11.7412 8.62968 11.5225 8.40277C11.3037 8.17587 11.1815 7.87297 11.1815 7.55778C11.1815 7.2426 11.3037 6.9397 11.5225 6.71279C11.7412 6.48589 12.0395 6.35268 12.3544 6.34117Z" fill="#989898"/>
</svg>
