<svg width="16" height="16" viewBox="0 0 16 16" fill="none" xmlns="http://www.w3.org/2000/svg">
<path d="M13 2.66659H11V1.66659C11 1.57818 10.9649 1.4934 10.9024 1.43088C10.8399 1.36837 10.7551 1.33325 10.6667 1.33325C10.5783 1.33325 10.4935 1.36837 10.431 1.43088C10.3685 1.4934 10.3333 1.57818 10.3333 1.66659V2.66659H5.66668V1.66659C5.66668 1.57818 5.63156 1.4934 5.56905 1.43088C5.50653 1.36837 5.42175 1.33325 5.33334 1.33325C5.24494 1.33325 5.16015 1.36837 5.09764 1.43088C5.03513 1.4934 5.00001 1.57818 5.00001 1.66659V2.66659H3.00001C2.55815 2.66711 2.13453 2.84288 1.82208 3.15533C1.50964 3.46777 1.33387 3.89139 1.33334 4.33325V12.9999C1.33387 13.4418 1.50964 13.8654 1.82208 14.1778C2.13453 14.4903 2.55815 14.6661 3.00001 14.6666H13C13.442 14.6666 13.866 14.491 14.1785 14.1784C14.4911 13.8659 14.6667 13.4419 14.6667 12.9999V4.33325C14.6667 3.89122 14.4911 3.4673 14.1785 3.15474C13.866 2.84218 13.442 2.66659 13 2.66659ZM14 12.9999C14 13.2651 13.8947 13.5195 13.7071 13.707C13.5196 13.8946 13.2652 13.9999 13 13.9999H3.00001C2.73479 13.9999 2.48044 13.8946 2.2929 13.707C2.10537 13.5195 2.00001 13.2651 2.00001 12.9999V7.33325H14V12.9999ZM14 6.66658H2.00001V4.33325C2.00001 3.78125 2.44668 3.33325 3.00001 3.33325H5.00001V4.33325C5.00001 4.42166 5.03513 4.50644 5.09764 4.56895C5.16015 4.63147 5.24494 4.66658 5.33334 4.66658C5.42175 4.66658 5.50653 4.63147 5.56905 4.56895C5.63156 4.50644 5.66668 4.42166 5.66668 4.33325V3.33325H10.3333V4.33325C10.3333 4.42166 10.3685 4.50644 10.431 4.56895C10.4935 4.63147 10.5783 4.66658 10.6667 4.66658C10.7551 4.66658 10.8399 4.63147 10.9024 4.56895C10.9649 4.50644 11 4.42166 11 4.33325V3.33325H13C13.2652 3.33325 13.5196 3.43861 13.7071 3.62614C13.8947 3.81368 14 4.06804 14 4.33325V6.66658Z" fill="#989898"/>
</svg>
