<svg width="42" height="42" viewBox="0 0 42 42" fill="none" xmlns="http://www.w3.org/2000/svg">
<circle cx="21" cy="21" r="21" fill="#353535"/>
<g clip-path="url(#clip0_153_4)">
<path d="M33.2636 18.3492L31.0178 17.8509C30.8428 17.2909 30.6136 16.7549 30.3507 16.2396L31.5656 14.2153C32.0193 13.4903 32.2485 12.4237 31.5656 11.7403L30.3274 10.5031C29.6445 9.81972 28.4913 9.94265 27.7948 10.4257L25.8252 11.6804C25.3141 11.4152 24.7799 11.1882 24.2248 11.0088L23.7208 8.736C23.5703 7.90259 22.8414 7 21.875 7H20.125C19.1585 7 18.5662 7.91612 18.375 8.75L17.8137 10.9957C17.2208 11.1847 16.6517 11.4262 16.1092 11.7123L14.0901 10.4265C13.394 9.9435 12.2403 9.82056 11.5574 10.5039L10.3197 11.7412C9.63635 12.425 9.8656 13.4912 10.3197 14.2161L11.5981 16.3468C11.3584 16.8298 11.1457 17.3294 10.9817 17.8513L8.73641 18.3496C7.90254 18.4997 7 19.2286 7 20.195V21.945C7 22.9114 7.91612 23.5038 8.75 23.695L11.0237 24.2633C11.1808 24.7454 11.3772 25.2083 11.5994 25.6572L10.3197 27.79C9.86609 28.5145 9.63684 29.5811 10.3197 30.2645L11.5579 31.5018C12.2408 32.1856 13.3941 32.0622 14.0906 31.5796L16.114 30.2903C16.6596 30.5782 17.2318 30.8218 17.8286 31.0104L18.3885 33.25C18.5802 34.0839 19.1721 35 20.1385 35H21.8885C22.855 35 23.5838 34.0975 23.7343 33.2636L24.2392 30.9847C24.7887 30.807 25.3159 30.583 25.8208 30.3214L27.7948 31.5792C28.4913 32.0622 29.645 32.1851 30.3275 31.5013L31.5656 30.2641C32.2486 29.5802 32.0193 28.5141 31.5656 27.7896L30.3498 25.7626C30.5944 25.2823 30.8062 24.7826 30.9763 24.2629L33.25 23.695C34.0839 23.5034 35 22.9114 35 21.945V20.195C35 19.2286 34.0979 18.4997 33.2636 18.3492ZM33.2508 21.8216C33.1765 21.875 33.0364 21.9484 32.8588 21.9895L29.6143 22.7997L29.3133 23.7193C29.1773 24.1337 29.0014 24.5541 28.7905 24.9693L28.3513 25.8325L30.0654 28.6907C30.1748 28.8657 30.2259 29.0223 30.2413 29.1146L29.0902 30.2639C28.9791 30.2289 28.8526 30.1834 28.7918 30.1419L25.9113 28.3048L25.0158 28.7681C24.5844 28.9921 24.1416 29.1776 23.7006 29.3203L22.7469 29.6287L22.0259 32.8859C21.9926 33.06 21.8994 33.2005 21.8355 33.2508H20.2605C20.2072 33.1764 20.1341 33.0364 20.0934 32.8592L19.288 29.6379L18.3557 29.3421C17.8753 29.1907 17.3963 28.9891 16.9299 28.7432L16.03 28.2681L13.149 30.1042C13.0313 30.1839 12.9053 30.2289 12.7912 30.2289L11.6436 29.112C11.6589 29.0215 11.7066 28.8719 11.802 28.7192L13.5918 25.7372L13.1661 24.8801C12.9675 24.4759 12.81 24.0965 12.6875 23.7207L12.3869 22.8002L9.17432 21.997C8.9722 21.951 8.82607 21.8758 8.74995 21.822V20.1949C8.75118 20.1955 8.75254 20.1958 8.75391 20.1958C8.78322 20.1958 8.92716 20.0934 9.04704 20.0715L12.348 19.3404L12.6511 18.3757C12.7745 17.9829 12.9429 17.5734 13.1656 17.1241L13.5913 16.2666L11.8203 13.3156C11.7105 13.1398 11.6598 12.9831 11.6445 12.8913L12.7951 11.7411C12.9067 11.7769 13.0322 11.822 13.0926 11.8636L16.0269 13.7339L16.926 13.2596C17.3875 13.0164 17.8648 12.8156 18.3452 12.6629L19.2753 12.3667L20.0733 9.17386C20.1197 8.97176 20.1941 8.82563 20.2483 8.74948H21.875C21.8632 8.76745 21.9756 8.92011 21.9988 9.04657L22.7338 12.3663L23.6867 12.6743C24.1333 12.8187 24.5822 13.0068 25.0188 13.2334L25.9144 13.6985L28.735 11.9017C28.8531 11.8212 28.9795 11.7766 29.0928 11.7766L30.2413 12.8926C30.226 12.9836 30.1778 13.1337 30.0825 13.2868L28.3504 16.1713L28.7923 17.0358C29.0307 17.5021 29.2127 17.9396 29.3479 18.3736L29.6502 19.3401L32.8847 20.058C33.0803 20.0943 33.2325 20.2072 33.2649 20.2684L33.2508 21.8216ZM21.0118 15.7411C18.1059 15.7411 15.7416 18.1005 15.7416 20.9998C15.7416 23.8987 18.1059 26.2581 21.0118 26.2581C23.9176 26.2581 26.2819 23.8987 26.2819 20.9998C26.2819 18.1005 23.9176 15.7411 21.0118 15.7411ZM20.9999 24.4998C19.0701 24.4998 17.4999 22.9296 17.4999 20.9998C17.4999 19.0696 19.0701 17.4998 20.9999 17.4998C22.9302 17.4998 24.4999 19.0696 24.4999 20.9998C24.4999 22.9296 22.9298 24.4998 20.9999 24.4998Z" fill="white"/>
</g>
<defs>
<clipPath id="clip0_153_4">
<rect width="28" height="28" fill="white" transform="translate(7 7)"/>
</clipPath>
</defs>
</svg>
