<svg width="12" height="12" viewBox="0 0 12 12" fill="none" xmlns="http://www.w3.org/2000/svg">
<g clip-path="url(#clip0_55_288)">
<path d="M6 0C2.68594 0 0 2.68594 0 6C0 9.31406 2.68594 12 6 12C9.31406 12 12 9.31406 12 6C12 2.68594 9.31406 0 6 0ZM6 10.9992C3.23906 10.9992 1.00078 8.76094 1.00078 6C1.00078 3.23906 3.23906 1.00078 6 1.00078C8.76094 1.00078 10.9992 3.23906 10.9992 6C10.9992 8.76094 8.76094 10.9992 6 10.9992ZM6.49922 1.99922H5.49844V6.49922H9V5.49844H6.49922V1.99922Z" fill="white" fill-opacity="0.5"/>
</g>
<defs>
<clipPath id="clip0_55_288">
<rect width="12" height="12" fill="white"/>
</clipPath>
</defs>
</svg>
