<svg width="24" height="24" viewBox="0 0 24 24" fill="none" xmlns="http://www.w3.org/2000/svg">
<path d="M21.75 20.25C18.2812 20.75 15.0312 21 12 21C10.6562 21 9.17188 20.9375 7.54688 20.8125C5.92188 20.6875 4.63281 20.5625 3.67969 20.4375L2.25 20.25C1.82812 20.1719 1.45703 19.8789 1.13672 19.3711C0.816406 18.8633 0.582031 18.25 0.433594 17.5312C0.285156 16.8125 0.175781 16.1406 0.105469 15.5156C0.0351562 14.8906 0 14.3203 0 13.8047V10.1953C0 6.21094 0.75 4.0625 2.25 3.75C5.71875 3.25 8.96875 3 12 3C13.3438 3 14.8281 3.0625 16.4531 3.1875C18.0781 3.3125 19.3672 3.4375 20.3203 3.5625L21.75 3.75C22.2031 3.8125 22.5898 4.09766 22.9102 4.60547C23.2305 5.11328 23.4609 5.73438 23.6016 6.46875C23.7422 7.20312 23.8438 7.875 23.9062 8.48438C23.9688 9.09375 24 9.66406 24 10.1953V13.8047C24 14.3672 23.9766 14.9375 23.9297 15.5156C23.8828 16.0938 23.7891 16.7578 23.6484 17.5078C23.5078 18.2578 23.2734 18.8828 22.9453 19.3828C22.6172 19.8828 22.2188 20.1719 21.75 20.25ZM16.2422 11.4141L10.1016 7.66406C9.92969 7.50781 9.70312 7.46484 9.42188 7.53516C9.14062 7.60547 9 7.71875 9 7.875V16.125C9 16.2969 9.14062 16.4141 9.42188 16.4766C9.70312 16.5391 9.92969 16.4922 10.1016 16.3359L16.2422 12.5859C16.4141 12.4297 16.5 12.2344 16.5 12C16.5 11.7656 16.4141 11.5703 16.2422 11.4141Z" fill="white" fill-opacity="0.5"/>
</svg>
